<svg width="78" height="76" viewBox="0 0 78 76" fill="none" xmlns="http://www.w3.org/2000/svg">
<path d="M30.276 22.12C31.02 22.264 31.572 22.516 31.932 22.876C32.316 23.236 32.508 23.656 32.508 24.136C32.508 24.928 32.28 25.504 31.824 25.864C31.392 26.224 30.696 26.368 29.736 26.296C27.576 26.128 25.884 26.02 24.66 25.972C23.46 25.9 21.876 25.852 19.908 25.828C19.02 30.244 18.204 34.684 17.46 39.148C17.196 40.78 16.92 42.676 16.632 44.836C16.344 46.972 16.152 48.7 16.056 50.02C16.008 50.716 15.72 51.256 15.192 51.64C14.664 52 14.028 52.18 13.284 52.18C12.492 52.18 11.88 51.988 11.448 51.604C11.016 51.22 10.8 50.716 10.8 50.092C10.8 49.516 10.884 48.568 11.052 47.248C11.244 45.904 11.46 44.5 11.7 43.036C11.964 41.572 12.168 40.3 12.312 39.22C12.576 37.396 12.876 35.584 13.212 33.784C13.548 31.984 13.884 30.28 14.22 28.672C14.292 28.312 14.376 27.904 14.472 27.448C14.568 26.968 14.676 26.44 14.796 25.864C12.444 25.936 10.596 26.128 9.252 26.44C7.908 26.752 6.948 27.196 6.372 27.772C5.82 28.324 5.544 29.044 5.544 29.932C5.544 30.748 5.784 31.528 6.264 32.272C6.36 32.44 6.408 32.62 6.408 32.812C6.408 33.268 6.132 33.7 5.58 34.108C5.052 34.492 4.5 34.684 3.924 34.684C3.516 34.684 3.18 34.564 2.916 34.324C2.436 33.916 2.04 33.34 1.728 32.596C1.416 31.828 1.26 30.964 1.26 30.004C1.26 27.964 1.92 26.332 3.24 25.108C4.584 23.86 6.612 22.948 9.324 22.372C12.06 21.796 15.564 21.508 19.836 21.508C22.476 21.508 24.576 21.556 26.136 21.652C27.72 21.748 29.1 21.904 30.276 22.12ZM46.8096 43.972C47.1216 43.972 47.3616 44.116 47.5296 44.404C47.7216 44.692 47.8176 45.088 47.8176 45.592C47.8176 46.552 47.5896 47.296 47.1336 47.824C46.0296 49.096 44.8896 50.14 43.7136 50.956C42.5616 51.772 41.2416 52.18 39.7536 52.18C38.5296 52.18 37.6056 51.832 36.9816 51.136C36.3576 50.416 36.0456 49.384 36.0456 48.04C36.0456 47.368 36.2136 46.168 36.5496 44.44C36.8616 42.928 37.0176 41.884 37.0176 41.308C37.0176 40.924 36.8856 40.732 36.6216 40.732C36.3096 40.732 35.8656 41.14 35.2896 41.956C34.7136 42.748 34.1376 43.804 33.5616 45.124C32.9856 46.444 32.5176 47.836 32.1576 49.3C31.7016 51.22 30.5736 52.18 28.7736 52.18C28.0536 52.18 27.5736 51.928 27.3336 51.424C27.1176 50.896 27.0096 49.96 27.0096 48.616C27.0096 47.848 27.0216 47.236 27.0456 46.78L27.0816 43.9C27.0816 40.204 27.4536 36.352 28.1976 32.344C28.9656 28.336 30.0816 24.976 31.5456 22.264C33.0336 19.528 34.8096 18.16 36.8736 18.16C37.9776 18.16 38.8656 18.64 39.5376 19.6C40.2336 20.536 40.5816 21.76 40.5816 23.272C40.5816 25.696 39.8736 28.216 38.4576 30.832C37.0416 33.424 34.7376 36.46 31.5456 39.94C31.4736 41.188 31.4376 42.472 31.4376 43.792C32.2296 41.752 33.1056 40.096 34.0656 38.824C35.0496 37.528 36.0096 36.604 36.9456 36.052C37.9056 35.5 38.7816 35.224 39.5736 35.224C41.1336 35.224 41.9136 36.004 41.9136 37.564C41.9136 38.5 41.6496 40.192 41.1216 42.64C40.6656 44.728 40.4376 46.108 40.4376 46.78C40.4376 47.74 40.7856 48.22 41.4816 48.22C41.9616 48.22 42.5256 47.932 43.1736 47.356C43.8456 46.756 44.7336 45.796 45.8376 44.476C46.1256 44.14 46.4496 43.972 46.8096 43.972ZM36.1176 21.724C35.6856 21.724 35.2056 22.348 34.6776 23.596C34.1496 24.82 33.6336 26.488 33.1296 28.6C32.6496 30.688 32.2536 32.968 31.9416 35.44C33.4296 33.688 34.6536 31.78 35.6136 29.716C36.5976 27.652 37.0896 25.78 37.0896 24.1C37.0896 23.332 37.0056 22.744 36.8376 22.336C36.6696 21.928 36.4296 21.724 36.1176 21.724ZM60.9559 43.972C61.2679 43.972 61.5079 44.116 61.6759 44.404C61.8679 44.692 61.9639 45.088 61.9639 45.592C61.9639 46.552 61.7359 47.296 61.2799 47.824C60.3919 48.904 59.1319 49.9 57.4999 50.812C55.8919 51.724 54.1639 52.18 52.3159 52.18C49.7959 52.18 47.8399 51.496 46.4479 50.128C45.0559 48.76 44.3599 46.888 44.3599 44.512C44.3599 42.856 44.7079 41.32 45.4039 39.904C46.0999 38.464 47.0599 37.324 48.2839 36.484C49.5319 35.644 50.9359 35.224 52.4959 35.224C53.8879 35.224 55.0039 35.644 55.8439 36.484C56.6839 37.3 57.1039 38.416 57.1039 39.832C57.1039 41.488 56.5039 42.916 55.3039 44.116C54.1279 45.292 52.1239 46.228 49.2919 46.924C49.8919 48.028 51.0319 48.58 52.7119 48.58C53.7919 48.58 55.0159 48.208 56.3839 47.464C57.7759 46.696 58.9759 45.7 59.9839 44.476C60.2719 44.14 60.5959 43.972 60.9559 43.972ZM51.8839 38.752C50.9959 38.752 50.2399 39.268 49.6159 40.3C49.0159 41.332 48.7159 42.58 48.7159 44.044V44.116C50.1319 43.78 51.2479 43.276 52.0639 42.604C52.8799 41.932 53.2879 41.152 53.2879 40.264C53.2879 39.808 53.1559 39.448 52.8919 39.184C52.6519 38.896 52.3159 38.752 51.8839 38.752ZM65.1167 52.18C63.7007 52.18 62.4887 51.832 61.4807 51.136C60.4967 50.416 59.7527 49.48 59.2487 48.328C58.7447 47.176 58.4927 45.94 58.4927 44.62C58.4927 42.796 58.8287 41.176 59.5007 39.76C60.1967 38.32 61.1327 37.204 62.3087 36.412C63.4847 35.596 64.8047 35.188 66.2687 35.188C67.6847 35.188 68.8967 35.548 69.9047 36.268C70.9127 36.964 71.6687 37.888 72.1727 39.04C72.6767 40.192 72.9287 41.428 72.9287 42.748C72.9287 44.572 72.5807 46.204 71.8847 47.644C71.1887 49.06 70.2407 50.176 69.0407 50.992C67.8647 51.784 66.5567 52.18 65.1167 52.18ZM65.5127 48.292C66.3287 48.292 67.0127 47.848 67.5647 46.96C68.1407 46.072 68.4287 44.776 68.4287 43.072C68.4287 41.752 68.1887 40.756 67.7087 40.084C67.2287 39.412 66.6527 39.076 65.9807 39.076C65.1167 39.076 64.3967 39.52 63.8207 40.408C63.2687 41.272 62.9927 42.568 62.9927 44.296C62.9927 45.664 63.2327 46.672 63.7127 47.32C64.1927 47.968 64.7927 48.292 65.5127 48.292Z" fill="white"/>
</svg>
